<?xml version="1.0" encoding="UTF-8"?>
<!-- Generator: visioncortex VTracer 0.6.3 -->
<svg version="1.1" xmlns="http://www.w3.org/2000/svg" width="1280" height="1280">
<path d="M0 0 C17.19 15.1 17.87 44.35 19.33 65.51 C19.57 69.41 19.79 73.31 19.99 77.21 C20.04 78.03 20.08 78.84 20.13 79.68 C20.85 93.39 20.82 106.89 19.8 120.59 C20.7 120.53 21.6 120.47 22.53 120.41 C34.84 119.98 45.93 122.53 57.8 125.59 C59.36 125.98 60.91 126.36 62.46 126.75 C63.56 127.03 64.67 127.3 65.8 127.59 C59.73 122.74 59.73 122.74 53.37 118.27 C50.8 116.59 50.8 116.59 48.8 114.59 C49.36 110.03 49.36 110.03 50.8 108.59 C71.44 106.23 90.67 115.64 106.8 127.59 C101.22 115.96 93.3 108.38 82.43 101.79 C79.8 99.59 79.8 99.59 78.93 96.32 C78.87 94.97 78.87 94.97 78.8 93.59 C83.01 90.79 85.4 91.79 90.22 92.7 C112.2 98.15 130.58 110.11 143.8 128.59 C144.34 129.49 144.87 130.4 145.42 131.34 C146.61 133.71 146.61 133.71 148.8 134.59 C149.08 133.86 149.36 133.14 149.64 132.4 C158.77 110.31 172.53 88.14 187.36 69.42 C188.81 67.58 190.21 65.72 191.61 63.84 C205.26 45.71 224.41 31.07 246.8 25.59 C255.85 24.49 262.95 26.47 270.18 31.96 C275.37 37.15 276.6 42.36 277.05 49.46 C276.63 72.97 264.35 95.75 254.8 116.59 C253.82 118.75 252.84 120.91 251.86 123.07 C247.24 133.16 242.52 143.19 237.64 153.16 C230.26 168.21 223.63 183.49 217.29 199.01 C216.26 201.5 215.2 203.98 214.1 206.44 C213.83 207.07 213.55 207.71 213.26 208.36 C212.49 210.1 211.71 211.84 210.92 213.58 C208.46 220.2 210.38 224.75 213.15 230.94 C216.09 237.9 217.8 244.97 219.43 252.34 C219.73 253.68 220.03 255.02 220.33 256.36 C220.92 258.96 221.49 261.57 222.06 264.17 C222.66 266.9 223.28 269.63 223.92 272.36 C229.24 296.84 224.76 321.84 216.99 345.27 C216.59 346.49 216.19 347.71 215.77 348.96 C211.19 362.18 204.99 373.93 196.93 385.34 C195.6 387.25 194.27 389.16 192.94 391.07 C192.07 392.3 192.07 392.3 191.18 393.56 C189.78 395.53 189.78 395.53 188.8 397.59 C189.95 398.01 189.95 398.01 191.11 398.43 C207.85 404.93 215.87 416.04 223.8 431.59 C233.23 455.5 224.08 484.4 214.7 506.72 C210.29 516.7 204.74 525.69 198.5 534.63 C196.04 538.17 193.89 541.81 191.8 545.59 C192.76 545.28 193.71 544.97 194.69 544.66 C232.07 534.07 275.35 543.54 311.8 552.59 C312.79 552.82 313.77 553.06 314.78 553.31 C317.33 553.93 319.88 554.57 322.43 555.21 C323.12 555.38 323.81 555.55 324.52 555.72 C336.31 558.81 347.3 564.58 358.18 569.95 C359.74 570.72 361.3 571.47 362.86 572.22 C365.15 573.31 367.42 574.43 369.69 575.55 C370.39 575.89 371.09 576.22 371.82 576.56 C376.59 578.97 376.59 578.97 377.75 582.34 C377.77 583.08 377.79 583.82 377.8 584.59 C376.81 584.92 375.82 585.25 374.8 585.59 C375.41 585.96 376.01 586.34 376.63 586.72 C385.14 592.17 388.37 597.23 391.8 606.59 C392.17 607.54 392.53 608.49 392.91 609.47 C399.77 627.66 397.78 646.66 390.27 664.37 C387.22 670.78 383.55 676.77 379.68 682.71 C379.27 683.34 378.86 683.97 378.44 684.61 C373.29 692.25 365.94 696.87 357.09 699.35 C340.84 702.49 323.83 700.2 307.55 698.46 C306.5 698.35 305.45 698.24 304.36 698.13 C281.83 695.73 258.58 693.22 237.8 683.59 C236.82 683.13 236.82 683.13 235.81 682.67 C224.21 677.24 214.26 670.01 204.09 662.3 C189.23 651.16 173.54 641.61 156.8 633.59 C156.74 634.3 156.68 635.01 156.62 635.75 C155.86 644.5 155.86 644.5 155.12 648.59 C154.46 651.77 154.46 651.77 156.8 654.59 C161.24 677.23 158.19 697.99 149.8 719.21 C149.52 719.95 149.23 720.68 148.94 721.44 C143.96 734.22 138.41 746.56 131.8 758.59 C131.31 759.49 130.82 760.4 130.31 761.33 C124.35 772.18 118.06 782.55 110.8 792.59 C109.86 793.94 108.91 795.3 107.97 796.66 C103.07 803.7 98.09 810.65 92.8 817.4 C92.14 818.25 92.14 818.25 91.46 819.12 C89.07 822.13 86.68 825.03 83.8 827.59 C83.14 827.59 82.48 827.59 81.8 827.59 C81.8 828.25 81.8 828.91 81.8 829.59 C81.14 829.59 80.48 829.59 79.8 829.59 C79.47 830.58 79.14 831.57 78.8 832.59 C77.31 834.09 77.31 834.09 75.37 835.71 C72.14 838.44 68.99 841.23 65.87 844.09 C61.36 848.16 56.67 851.93 51.8 855.59 C52.36 859.4 53.97 861.05 56.74 863.65 C59.15 865.93 60.95 867.81 62.8 870.59 C65.88 869.21 68.01 867.6 70.43 865.27 C79.19 857.49 91.45 852.63 103.27 853.28 C113.2 854.49 119.69 861.6 126.37 868.4 C126.88 868.91 127.39 869.42 127.91 869.95 C135.63 877.75 141.81 885.24 145.8 895.59 C146.18 896.41 146.56 897.24 146.95 898.1 C148.64 901.99 149.23 904.57 147.8 908.59 C145.36 910.73 145.36 910.73 142.24 912.84 C137.26 916.31 133.35 920.03 129.62 924.84 C127.41 926.97 125.81 927.26 122.8 927.59 C119.31 923.7 115.9 919.8 112.8 915.59 C105.9 905.53 105.9 905.53 95.59 900.21 C89.58 899.77 85.52 901.06 80.72 904.7 C76.02 909.32 74.59 914.69 74.05 921.15 C74.29 929.53 78.81 936.46 82.8 943.59 C83.12 944.36 83.43 945.13 83.75 945.93 C85.3 948.36 87.11 948.65 89.8 949.59 C92.06 950.74 94.31 951.91 96.55 953.09 C108.35 959.06 119.85 960.67 132.68 956.59 C142.46 953.54 152.96 952.69 162.41 957.21 C175.48 964.71 186.14 975.64 190.33 990.43 C195.92 1011.16 196.76 1029.95 186.25 1049.3 C182.35 1055.45 178.4 1061.21 171.8 1064.59 C171.14 1064.59 170.48 1064.59 169.8 1064.59 C173.53 1069.01 177.1 1073.16 181.8 1076.59 C181.47 1078.24 181.14 1079.89 180.8 1081.59 C179.81 1081.59 178.82 1081.59 177.8 1081.59 C177.8 1082.58 177.8 1083.57 177.8 1084.59 C176.81 1084.59 175.82 1084.59 174.8 1084.59 C174.72 1085.35 174.64 1086.11 174.55 1086.9 C173.66 1090.11 172.59 1090.88 169.8 1092.59 C165.79 1091.09 164.44 1088.83 162.3 1085.21 C160.11 1081.51 157.97 1078.52 154.8 1075.59 C153.81 1077.57 152.82 1079.55 151.8 1081.59 C152.49 1082.2 153.18 1082.82 153.89 1083.45 C154.79 1084.26 155.69 1085.07 156.62 1085.9 C157.51 1086.7 158.4 1087.5 159.32 1088.32 C161.2 1090.04 163.03 1091.76 164.8 1093.59 C163.48 1098.73 161.32 1101.63 157.68 1105.46 C157.21 1105.96 156.74 1106.46 156.26 1106.97 C155.12 1108.18 153.96 1109.39 152.8 1110.59 C149.59 1110.3 148.71 1109.49 146.45 1107.08 C145.66 1106.07 144.87 1105.06 144.05 1104.02 C143.26 1103.01 142.46 1102 141.63 1100.96 C141.03 1100.17 140.43 1099.39 139.8 1098.59 C135.81 1099.41 133.17 1101.29 129.8 1103.59 C123.49 1105.69 117.63 1105.33 111.62 1102.46 C103.81 1098.39 98.38 1092.23 93.18 1085.27 C92.63 1084.57 92.09 1083.86 91.52 1083.13 C81.05 1069.31 81.05 1069.31 81.8 1062.59 C83.47 1060.36 85.06 1058.49 86.99 1056.52 C87.47 1056.01 87.96 1055.49 88.46 1054.96 C90.72 1052.58 92.97 1050.46 95.54 1048.4 C98.01 1046.61 98.01 1046.61 99.8 1043.59 C105.87 1044.1 108.35 1048.03 112.21 1052.34 C115.23 1054.96 116.83 1055.55 120.8 1055.59 C125.07 1053.78 128.68 1050.9 131.68 1047.4 C134.89 1039.38 137.03 1031.27 135.8 1022.59 C133.82 1018.23 131.15 1015.33 126.86 1013.22 C120.68 1011.31 113.67 1015.4 108.29 1018.17 C107.45 1018.62 106.61 1019.06 105.74 1019.52 C85.65 1030.04 85.65 1030.04 74.96 1026.7 C60.58 1020.41 51.61 1008.22 44.8 994.59 C44.23 993.47 43.65 992.36 43.06 991.21 C40.77 986.73 38.62 982.28 36.8 977.59 C36.47 977.59 36.14 977.59 35.8 977.59 C35.84 976.71 35.84 976.71 35.88 975.82 C35.98 971.14 35.74 966.86 34.8 962.27 C33.75 956.48 33.58 950.83 33.55 944.96 C33.54 943.66 33.54 943.66 33.53 942.32 C33.55 937.83 33.91 933.71 34.88 929.31 C36.97 919.71 32.22 911.95 27.14 903.98 C26.15 902.52 25.13 901.06 24.1 899.62 C21.91 896.18 20.83 893.36 20.68 889.27 C22.27 884.07 25.43 880.77 29.8 877.59 C32.57 876.86 32.57 876.86 34.8 876.59 C38.8 881.57 42.55 886.53 45.76 892.05 C46.74 893.76 46.74 893.76 48.8 894.59 C49.69 892.38 49.69 892.38 49.8 889.59 C48.13 886.56 48.13 886.56 45.68 883.65 C45.27 883.12 44.85 882.59 44.43 882.04 C42.28 879.3 40.02 876.73 37.62 874.21 C37.02 873.34 36.42 872.48 35.8 871.59 C36.69 868.42 36.69 868.42 37.8 865.59 C30.68 868.84 24.23 872.55 17.74 876.9 C6.56 884.3 -5.39 889.52 -17.68 894.82 C-18.34 895.11 -19 895.39 -19.68 895.69 C-22.96 897.1 -26.24 898.5 -29.53 899.89 C-35.15 902.29 -40.65 904.75 -45.98 907.75 C-54.24 912.38 -63.15 914.93 -72.2 917.59 C-72.94 917.82 -73.69 918.05 -74.46 918.28 C-119.47 931.66 -187.39 922.09 -230.2 905.59 C-230.98 905.29 -231.76 905 -232.56 904.7 C-242.84 900.83 -250.79 895.66 -259.2 888.59 C-260.54 887.62 -260.54 887.62 -261.9 886.62 C-265.34 883.56 -266.33 880.11 -267.94 875.88 C-269.12 872.64 -269.12 872.64 -270.52 869.86 C-275.88 858.21 -276.24 845.21 -277.2 832.59 C-277.27 831.75 -277.34 830.91 -277.41 830.05 C-278.13 820.9 -276.92 813.08 -274.69 804.18 C-271.73 792.35 -270.06 785.17 -276.24 774.52 C-278.85 769.86 -279.34 765.01 -279.95 759.77 C-280.8 752.49 -281.88 745.59 -284.2 738.59 C-284.73 738.7 -285.27 738.81 -285.82 738.92 C-287.53 739.26 -289.25 739.61 -290.96 739.94 C-293.28 740.4 -295.59 740.89 -297.89 741.39 C-312.08 744.38 -325.16 745.83 -338.01 737.84 C-344.95 730.7 -346.51 723.76 -346.51 714.06 C-346.29 703.08 -340.9 697.15 -333.2 689.59 C-321.64 679.59 -321.64 679.59 -317.2 679.59 C-317.2 678.93 -317.2 678.27 -317.2 677.59 C-318 677.46 -318 677.46 -318.82 677.34 C-332.9 672.89 -346.4 656.29 -352.95 643.9 C-358.76 631.34 -361.9 618.9 -363.28 605.19 C-363.51 602.95 -363.76 600.72 -364.02 598.48 C-365.65 583.74 -365.64 570.04 -362.2 555.59 C-362 554.77 -361.81 553.95 -361.61 553.1 C-357.39 535.73 -351.28 520.18 -338.2 507.59 C-345.97 503.09 -353.77 498.74 -361.87 494.83 C-370.8 490.51 -378.54 485.96 -386.2 479.59 C-387.25 478.8 -388.3 478.02 -389.38 477.21 C-392.84 473.98 -395.69 470.44 -398.63 466.75 C-400.93 463.88 -403.33 461.13 -405.75 458.37 C-414.28 448.64 -420.81 438.86 -425.2 426.59 C-425.52 425.67 -425.52 425.67 -425.86 424.74 C-430.02 412.86 -431.52 401.12 -432.2 388.59 C-432.27 387.29 -432.34 386 -432.41 384.67 C-433.04 361.71 -422.9 342.35 -407.82 325.59 C-394.72 313.38 -374.35 310.03 -357.2 310.59 C-341.61 311.64 -326.83 314.49 -312.07 319.46 C-310.85 319.87 -309.62 320.28 -308.36 320.7 C-297.25 324.62 -287.56 329.96 -278.07 336.9 C-277.29 337.47 -276.51 338.04 -275.71 338.62 C-267.01 345.07 -260.3 352.35 -253.56 360.79 C-251.17 363.62 -248.63 366.15 -245.95 368.71 C-233.12 381.32 -222.03 396.91 -215.2 413.59 C-214.45 412.86 -213.71 412.14 -212.95 411.4 C-195.4 396.86 -168.37 398.99 -147.2 400.59 C-141.84 401.1 -136.52 401.82 -131.2 402.59 C-131.3 401.07 -131.3 401.07 -131.41 399.53 C-132.08 389.38 -132.38 379.27 -132.38 369.1 C-132.38 366.69 -132.4 364.28 -132.42 361.88 C-132.5 340.88 -127.2 322.68 -113.2 306.59 C-128.9 308.98 -141.49 319.66 -153.46 329.43 C-156.01 331.12 -158.22 330.79 -161.2 330.59 C-162.77 327.6 -163.35 326.18 -162.47 322.86 C-161.81 321.42 -161.81 321.42 -161.13 319.96 C-160.65 318.9 -160.17 317.83 -159.67 316.74 C-159.18 315.7 -158.7 314.66 -158.2 313.59 C-157.65 312.32 -157.65 312.32 -157.09 311.03 C-146.22 285.94 -132.19 260.46 -112.2 241.59 C-128.99 249.63 -144.45 264.29 -156.2 278.59 C-157.51 280.13 -158.82 281.67 -160.13 283.21 C-164.12 287.89 -168.03 292.61 -171.88 297.4 C-182.41 310.22 -182.41 310.22 -187.57 311.27 C-190.2 310.59 -190.2 310.59 -192.2 307.59 C-191.02 290.65 -184.18 274.77 -177.44 259.43 C-176.29 256.81 -175.17 254.18 -174.05 251.55 C-167.77 236.9 -160.24 223.99 -150.2 211.59 C-149.46 210.66 -148.73 209.74 -147.98 208.79 C-124.32 179.22 -93.76 153.3 -57.96 139.98 C-57.25 139.72 -56.54 139.46 -55.81 139.19 C-55.28 138.99 -54.74 138.79 -54.2 138.59 C-54.27 137.53 -54.34 136.48 -54.41 135.39 C-55.17 123.39 -55.36 111.43 -55.32 99.4 C-55.32 98.45 -55.32 97.49 -55.31 96.51 C-55.3 89.87 -55.25 83.23 -55.2 76.59 C-55.19 75.78 -55.18 74.97 -55.18 74.14 C-54.76 23.74 -54.76 23.74 -36.54 4.88 C-25.93 -4.97 -12.5 -8.69 0 0 Z M371.8 582.59 C372.8 584.59 372.8 584.59 372.8 584.59 Z M134.8 688.59 C135.8 691.59 135.8 691.59 135.8 691.59 Z M133.8 691.59 C133.54 692.1 133.28 692.62 133.01 693.16 C125.74 707.51 118.19 719.58 106.61 730.82 C104.39 733.01 102.32 735.21 100.3 737.59 C90.05 749.45 78.64 758.62 65.8 767.59 C65.16 768.04 64.51 768.5 63.84 768.97 C53.47 776.22 42.57 782.55 31.65 788.92 C28.9 790.53 26.15 792.17 23.42 793.81 C4.25 805.31 -15.11 816.59 -35.98 824.72 C-38.23 825.6 -40.46 826.52 -42.7 827.45 C-57.97 833.71 -73.51 837.41 -89.71 840.49 C-91.13 840.76 -92.55 841.03 -93.97 841.31 C-131.2 848.55 -170.69 838.94 -206.2 827.59 C-207.1 827.3 -208 827.02 -208.93 826.72 C-224.34 821.78 -238.53 815.43 -251.44 805.59 C-254.08 803.46 -254.08 803.46 -257.2 802.59 C-258.94 810.57 -259.52 818.18 -259.45 826.34 C-259.44 827.48 -259.43 828.62 -259.42 829.8 C-259.28 841.33 -258.12 852.1 -254.95 863.21 C-254.77 863.87 -254.59 864.54 -254.4 865.22 C-252.51 871.28 -248.87 874 -243.57 877.14 C-240.16 878.74 -236.71 880.21 -233.2 881.59 C-232.5 881.86 -231.8 882.14 -231.07 882.42 C-210.11 890.36 -187.28 892.56 -165.2 895.59 C-164.49 895.68 -163.79 895.78 -163.06 895.89 C-139.45 899.05 -114.8 896.46 -91.35 893.16 C-87.38 892.6 -83.4 892.13 -79.42 891.66 C-61.3 889.32 -45.94 883.71 -29.51 876.11 C-26.7 874.82 -23.87 873.58 -21.02 872.38 C-8.96 867.3 2.43 861.03 13.8 854.59 C14.52 854.18 15.24 853.78 15.98 853.36 C25.5 847.99 34.22 841.8 42.85 835.1 C44.76 833.62 46.68 832.15 48.61 830.69 C57.66 823.77 65.64 816.28 73.06 807.61 C74.27 806.21 75.49 804.83 76.73 803.47 C81.02 798.78 84.83 793.94 88.5 788.75 C90.19 786.43 91.91 784.19 93.71 781.95 C114.27 756.25 132.08 724.8 134.8 691.59 C134.47 691.59 134.14 691.59 133.8 691.59 Z M142.8 724.59 C143.8 726.59 143.8 726.59 143.8 726.59 Z M140.8 729.59 C141.8 731.59 141.8 731.59 141.8 731.59 Z M134.8 742.59 C135.8 744.59 135.8 744.59 135.8 744.59 Z M133.8 744.59 C134.8 746.59 134.8 746.59 134.8 746.59 Z M132.8 746.59 C133.8 748.59 133.8 748.59 133.8 748.59 Z M125.8 759.59 C126.8 761.59 126.8 761.59 126.8 761.59 Z M124.8 761.59 C125.8 763.59 125.8 763.59 125.8 763.59 Z M117.8 773.59 C118.8 775.59 118.8 775.59 118.8 775.59 Z M112.8 781.59 C113.8 783.59 113.8 783.59 113.8 783.59 Z " fill="#000002" transform="translate(647.1953125,165.4140625)"/>
<path d="M0 0 C7.62 6.44 15.25 15.37 16.71 25.6 C17.35 55.01 6.3 83.93 -5.16 110.5 C-6.18 112.88 -7.19 115.26 -8.18 117.66 C-11.08 124.64 -14.2 131.11 -18.35 137.43 C-19.12 138.62 -19.12 138.62 -19.9 139.84 C-24.15 146.38 -28.69 152.68 -33.39 158.89 C-35.32 161.53 -37.04 164.16 -38.66 167 C-36.68 167.99 -34.7 168.98 -32.66 170 C-32.07 169.38 -31.48 168.76 -30.86 168.12 C-5.79 142.51 27.43 124.79 62.34 117 C63.09 116.82 63.84 116.65 64.62 116.47 C74.64 114.31 81.39 114.62 90.32 119.89 C101.96 128.02 109.82 139.99 112.34 154 C112.74 158.98 112.76 163.93 112.71 168.93 C112.72 170.21 112.73 171.49 112.75 172.81 C112.72 180.98 111.76 188.2 109.34 196 C109.08 196.85 108.81 197.7 108.55 198.58 C103.87 213.24 97.96 226.54 89.18 239.22 C85.52 244.56 82.39 250.12 79.47 255.89 C77.24 260.09 75.8 261.55 71.34 263 C67.78 263.86 64.18 264.47 60.59 265.12 C59.16 265.39 59.16 265.39 57.7 265.67 C51.81 266.74 46.32 267.18 40.34 267 C40.67 261.17 41.58 255.87 43.21 250.25 C45.77 241.11 46.91 231.85 48.04 222.45 C48.22 220.91 48.42 219.37 48.63 217.84 C50.02 207.64 50.35 196.92 47.34 187 C47.05 185.96 47.05 185.96 46.76 184.9 C46.3 183.26 45.82 181.63 45.34 180 C49.63 180.51 51.79 181.84 54.96 184.75 C55.72 185.42 56.47 186.1 57.25 186.79 C59.34 189 59.34 189 60.91 191.71 C62.19 194.35 62.19 194.35 65.52 194.81 C66.45 194.87 67.38 194.93 68.34 195 C69.05 190.18 68.47 187.56 65.65 183.56 C58.7 175.32 46.57 168.27 35.78 166.6 C33.14 166.42 30.55 166.39 27.9 166.43 C26.48 166.45 26.48 166.45 25.03 166.46 C10.64 166.87 -5.6 170.95 -17.66 179 C-17.99 179.99 -18.32 180.98 -18.66 182 C-11.39 181.54 -4.81 180.12 2.15 178 C3.97 177.45 5.79 176.91 7.61 176.37 C8.4 176.13 9.19 175.89 10 175.64 C14.34 174.44 18.39 173.84 22.9 173.81 C23.83 173.79 24.76 173.78 25.71 173.77 C28.44 174.01 29.96 174.72 32.34 176 C30.9 176.73 30.9 176.73 29.44 177.47 C-0.74 192.71 -0.74 192.71 -30.08 209.49 C-33.57 211.52 -37.15 213.38 -40.73 215.25 C-48.82 219.49 -56.72 224.02 -64.55 228.73 C-66.59 229.95 -68.63 231.16 -70.68 232.37 C-79.8 237.81 -88.64 243.62 -97.45 249.55 C-109.41 257.6 -121.47 265.28 -133.98 272.45 C-137.75 274.62 -141.5 276.82 -145.26 279.01 C-148.24 280.76 -151.23 282.5 -154.22 284.24 C-160.8 288.08 -167.39 291.92 -173.96 295.77 C-175.2 296.49 -176.43 297.21 -177.66 297.93 C-183.95 301.6 -190.2 305.32 -196.38 309.17 C-201.79 312.51 -207.27 315.52 -212.98 318.31 C-213.91 318.77 -214.85 319.23 -215.81 319.71 C-232.99 328.13 -250.44 335.82 -268.1 343.16 C-276.23 346.54 -284.31 350.03 -292.35 353.62 C-304.54 359.05 -316.92 363.94 -329.37 368.73 C-332.49 369.93 -335.6 371.14 -338.71 372.36 C-363.58 382.04 -363.58 382.04 -369.66 380 C-381.02 371.91 -384.74 357.6 -388.98 344.93 C-389.19 344.3 -389.4 343.67 -389.62 343.02 C-394.65 327.97 -397.23 314.16 -397.1 298.37 C-397.1 297.58 -397.09 296.79 -397.09 295.97 C-396.98 277.33 -394.67 259.65 -385.66 243 C-381.58 241.64 -378.5 242.9 -374.48 243.93 C-355.65 248.3 -332.54 246.53 -315.26 237.05 C-312.9 235.49 -311.12 233.71 -309.29 231.56 C-308.64 230.82 -307.99 230.08 -307.33 229.31 C-302.67 222.83 -302.99 215.71 -302.66 208 C-302.58 206.22 -302.58 206.22 -302.5 204.41 C-302.19 191.62 -304.4 179.05 -307.16 166.58 C-307.57 164.46 -307.89 162.33 -308.17 160.2 C-309.37 151.71 -310.97 146.63 -316.91 140.11 C-319.54 136.94 -319.99 135.08 -319.66 131 C-316.42 126.81 -312.04 124.97 -307.35 122.81 C-306.25 122.28 -306.25 122.28 -305.13 121.73 C-300.66 119.64 -296.67 118.21 -291.66 118 C-291.06 118.32 -290.46 118.64 -289.84 118.97 C-287 120.31 -284.73 120.29 -281.6 120.34 C-280.4 120.37 -279.2 120.4 -277.97 120.42 C-276.69 120.45 -275.42 120.47 -274.1 120.5 C-233.88 121.56 -186.47 127.27 -150.58 146.51 C-147.02 148.33 -143.38 149.83 -139.66 151.31 C-139.03 151.56 -138.39 151.82 -137.74 152.08 C-134.75 153.26 -131.81 154.33 -128.66 155 C-130.45 149.66 -130.45 149.66 -134.53 145.96 C-135.67 145.43 -136.8 144.91 -137.98 144.37 C-138.59 144.09 -139.19 143.8 -139.82 143.51 C-145.4 140.95 -151.16 138.94 -157 137.04 C-159.66 136 -159.66 136 -160.66 134 C-159.92 132.63 -159.92 132.63 -159.16 131.25 C-157.45 127.54 -157.65 125.87 -158.66 122 C-161.33 123.01 -162.47 123.66 -163.93 126.16 C-164.25 126.97 -164.58 127.78 -164.91 128.62 C-165.25 129.44 -165.58 130.26 -165.93 131.1 C-166.17 131.72 -166.41 132.35 -166.66 133 C-167.36 132.75 -168.06 132.51 -168.77 132.27 C-183.89 127.08 -198.72 122.81 -214.42 119.85 C-215.57 119.63 -216.73 119.41 -217.91 119.19 C-218.93 119 -219.95 118.82 -220.99 118.63 C-225.63 117.53 -225.63 117.53 -227.66 116 C-228.27 113.57 -228.27 113.57 -228.4 110.46 C-228.46 109.28 -228.51 108.11 -228.57 106.91 C-228.6 105.62 -228.63 104.33 -228.66 103 C-228.68 102.33 -228.7 101.66 -228.72 100.97 C-228.82 96.61 -228.85 92.25 -228.85 87.89 C-228.85 85.63 -228.87 83.38 -228.89 81.12 C-228.94 67.02 -228.16 53.81 -221.66 41 C-220.89 39.46 -220.89 39.46 -220.1 37.9 C-214.7 27.99 -207.48 19.14 -196.66 15 C-191.93 13.9 -187.34 13.44 -182.66 15 C-177.06 21.99 -175.16 31.8 -172.84 40.27 C-170.11 50.22 -166.52 59.09 -161 67.84 C-159.66 70 -159.66 70 -158.8 72.18 C-157.19 74.76 -155.63 74.91 -152.73 75.62 C-149.42 76.45 -147.56 77.07 -144.66 79 C-144.66 79.66 -144.66 80.32 -144.66 81 C-143.67 81 -142.68 81 -141.66 81 C-141.63 80.23 -141.6 79.46 -141.57 78.68 C-140.66 76 -140.66 76 -137.82 74.44 C-136.61 74.01 -135.41 73.57 -134.16 73.12 C-127.75 70.63 -122.77 67.61 -117.66 63 C-117.1 62.52 -116.53 62.05 -115.95 61.56 C-108.35 54.69 -103.06 45.19 -97.5 36.68 C-86.12 19.28 -69.22 -4.26 -48.66 -11 C-31.77 -14.25 -13.7 -10.31 0 0 Z " fill="#3086CD" transform="translate(750.6640625,453.00390625)"/>
<path d="M0 0 C3.45 2.22 4.81 4.24 6.81 7.81 C11.7 35.02 -8.08 67.8 -19.59 91.45 C-24.43 101.38 -29.01 111.43 -33.63 121.45 C-35.07 124.56 -36.51 127.65 -37.96 130.75 C-43.26 142.18 -47.98 153.72 -52.33 165.53 C-53.11 167.6 -53.93 169.63 -54.79 171.66 C-58.19 179.78 -60.16 185.83 -56.82 194.26 C-55.93 196.3 -55.03 198.33 -54.11 200.36 C-49.78 210.4 -47.94 221.19 -45.8 231.86 C-45.28 234.38 -44.67 236.85 -44.04 239.34 C-38.48 264.32 -45.27 292.46 -54.19 315.81 C-54.64 317.02 -54.64 317.02 -55.09 318.24 C-59.72 330.53 -65.78 341.72 -72.89 352.75 C-74.03 354.56 -75.06 356.43 -76.06 358.32 C-78.19 360.81 -78.19 360.81 -81.73 361.7 C-83.13 361.8 -84.54 361.88 -85.94 361.94 C-87.47 362.06 -89.01 362.19 -90.54 362.33 C-91.32 362.4 -92.09 362.47 -92.89 362.55 C-99.13 363.27 -105.16 365.09 -111.19 366.81 C-112.92 367.28 -112.92 367.28 -114.68 367.76 C-133.14 373.29 -150.15 383.33 -166.19 393.81 C-166.85 394.14 -167.51 394.47 -168.19 394.81 C-166.95 390.04 -165.42 386.06 -163.06 381.69 C-158.72 373.32 -155.52 364.56 -152.27 355.72 C-151.14 352.69 -149.98 349.67 -148.82 346.66 C-144.65 335.82 -140.73 325.16 -138.19 313.81 C-138.01 313.08 -137.83 312.34 -137.65 311.58 C-135.31 301.94 -133.8 292.56 -133.69 282.62 C-133.66 281.35 -133.66 281.35 -133.63 280.05 C-133.73 269.74 -138.6 262.4 -145.19 254.81 C-146.16 253.66 -146.16 253.66 -147.15 252.49 C-153.19 245.87 -160.1 242.3 -168.19 238.81 C-168.94 238.47 -169.68 238.13 -170.45 237.79 C-175.51 235.78 -180.82 235.21 -186.19 234.56 C-186.94 234.47 -187.68 234.38 -188.45 234.28 C-201.77 232.88 -214.54 236.64 -225.19 244.81 C-234.03 252.69 -241.97 261.44 -249.19 270.81 C-249.7 271.45 -250.21 272.09 -250.73 272.75 C-255.33 278.55 -259.46 284.59 -263.56 290.75 C-272.94 304.61 -282.72 318.18 -300.19 321.81 C-304.58 322.53 -307.39 322.36 -311.17 319.75 C-314.58 316.74 -316.36 313.33 -318.25 309.25 C-318.59 308.54 -318.93 307.83 -319.28 307.1 C-320.27 305.01 -321.23 302.91 -322.19 300.81 C-322.65 299.8 -323.12 298.78 -323.6 297.73 C-325.51 293.34 -327.18 288.92 -328.61 284.35 C-331.84 273.63 -331.84 273.63 -337.93 264.36 C-339.78 262.09 -340.49 259.62 -341.19 256.81 C-342.08 257.01 -342.08 257.01 -342.98 257.21 C-348.46 258.36 -353.87 259.16 -359.43 259.75 C-375.3 261.48 -388.06 265.44 -401.19 274.81 C-402.29 275.58 -402.29 275.58 -403.41 276.37 C-405.02 277.5 -406.61 278.65 -408.19 279.81 C-407.64 275.22 -406.41 271.84 -404.23 267.77 C-403.62 266.62 -403.01 265.47 -402.38 264.29 C-401.71 263.07 -401.04 261.85 -400.38 260.62 C-400.04 260 -399.7 259.38 -399.36 258.74 C-379.97 222.95 -379.97 222.95 -366.33 211.6 C-363.82 209.51 -361.42 207.32 -359 205.12 C-355.82 202.23 -352.57 199.47 -349.19 196.81 C-349.52 194.83 -349.85 192.85 -350.19 190.81 C-370.61 189.71 -391.12 207.55 -405.51 220.29 C-414.18 228.15 -422.03 236.56 -429.19 245.81 C-429.63 246.39 -430.08 246.96 -430.54 247.55 C-433.44 251.29 -436.32 255.05 -439.19 258.81 C-442.09 249.88 -434.76 238.99 -431.12 230.9 C-430.22 228.89 -429.35 226.86 -428.49 224.82 C-414.58 191.95 -392.46 163.74 -364.19 141.81 C-363.22 141.03 -362.25 140.24 -361.25 139.43 C-335.46 118.86 -305.17 107.79 -273.88 98.38 C-272.79 98.04 -271.7 97.71 -270.57 97.37 C-244.19 89.64 -213.23 90.32 -188.19 102.81 C-186.65 104.58 -185.55 106.31 -184.38 108.33 C-183.09 110.25 -183.09 110.25 -179.38 110.75 C-178.32 110.77 -177.27 110.79 -176.19 110.81 C-175.71 105.54 -177.2 102.21 -179.88 97.81 C-180.21 97.22 -180.55 96.63 -180.9 96.02 C-182.71 92.96 -184.64 90.2 -186.96 87.5 C-189.19 84.81 -189.19 84.81 -189.19 82.81 C-183.22 84.09 -178.24 85.98 -172.88 88.88 C-172.14 89.27 -171.4 89.67 -170.63 90.08 C-161.51 95.11 -154.01 101.54 -147.04 109.28 C-144.8 111.14 -143.04 111.46 -140.19 111.81 C-139.17 99.8 -144.54 90.11 -151.15 80.48 C-153.09 77.64 -154.68 75.26 -155.19 71.81 C-139.96 77.53 -128.54 89.28 -120.19 102.81 C-119.62 103.69 -119.04 104.56 -118.45 105.46 C-116.74 108.65 -116.98 111.26 -117.19 114.81 C-114.21 116.05 -111.33 117.11 -108.19 117.81 C-108.27 116.67 -108.35 115.54 -108.43 114.36 C-108.42 109.23 -106.61 105.5 -104.31 101 C-103.7 99.76 -103.7 99.76 -103.08 98.5 C-101.8 95.93 -100.5 93.37 -99.19 90.81 C-98.79 90.03 -98.4 89.26 -97.99 88.45 C-95.58 83.73 -93.1 79.04 -90.58 74.38 C-89.61 72.6 -88.66 70.82 -87.7 69.03 C-78.58 51.98 -67.96 37.28 -55.19 22.81 C-54.67 22.21 -54.16 21.62 -53.62 21 C-42.46 8.3 -16.48 -6.14 0 0 Z " fill="#3086CD" transform="translate(907.1875,200.1875)"/>
<path d="M0 0 C5.6 0.34 11.89 1.89 16 6 C15.17 21.71 9.79 34.59 2 48 C-1.06 53.29 -3.93 58.64 -6.75 64.06 C-8.49 67.38 -10.25 70.69 -12 74 C-12.36 74.69 -12.72 75.37 -13.1 76.08 C-16.9 83.25 -20.96 89.55 -26.59 95.45 C-29.31 98.33 -31.84 101.33 -34.38 104.38 C-47.28 119.69 -60.75 132.03 -77.44 143.19 C-78 143.57 -78.57 143.94 -79.15 144.33 C-86.49 149.23 -93.96 153.79 -101.66 158.11 C-104.71 159.84 -107.73 161.6 -110.74 163.39 C-144.49 183.42 -178.71 198.96 -216.64 209.05 C-219.97 209.99 -223.22 211.09 -226.5 212.21 C-233.42 214.36 -239.92 214.61 -247.12 214.5 C-249.07 214.48 -249.07 214.48 -251.05 214.47 C-264.23 214.26 -277.05 212.36 -290 210 C-291.69 209.72 -293.38 209.44 -295.07 209.16 C-331.29 202.88 -373.88 190.44 -398 161 C-400.51 157.14 -402.37 153.29 -404 149 C-404.32 148.18 -404.65 147.36 -404.98 146.52 C-407.08 140.48 -407.42 134.55 -407.75 128.2 C-407.95 125.62 -408.26 123.56 -409.06 121.12 C-410.33 116.9 -410.71 114.41 -410 110 C-407.69 107.57 -405.06 106.32 -402 105 C-401.26 104.68 -400.53 104.36 -399.77 104.03 C-387.16 99.47 -373.36 101.72 -361 106 C-359.75 106.67 -358.52 107.37 -357.31 108.09 C-354.41 109.76 -352.81 110.52 -349.56 110.75 C-348.39 110.83 -347.21 110.91 -346 111 C-346 110.34 -346 109.68 -346 109 C-346.66 109 -347.32 109 -348 109 C-348 108.34 -348 107.68 -348 107 C-348.68 106.79 -349.36 106.59 -350.06 106.38 C-352.79 105.1 -354.03 104.1 -356.13 102.06 C-360.09 98.61 -363.78 97.57 -368.88 96.62 C-369.63 96.46 -370.38 96.3 -371.15 96.13 C-379.09 94.51 -386.33 94.58 -394.25 96.38 C-395.41 96.63 -396.57 96.89 -397.77 97.15 C-400.94 97.91 -400.94 97.91 -403.63 99.08 C-406.77 100.3 -409.67 100.34 -413.01 100.46 C-413.67 100.64 -414.32 100.82 -415 101 C-415.29 101.63 -415.57 102.26 -415.87 102.91 C-417 105 -417 105 -419.87 106.2 C-423.57 107.16 -427.28 108.11 -431 109 C-431.89 109.23 -432.78 109.46 -433.7 109.7 C-442.93 111.76 -455.13 113.27 -464.12 109.8 C-468.77 106.78 -472.22 103.33 -474 98 C-474.69 90.35 -474.44 84.36 -470 78 C-469.4 77.12 -468.8 76.25 -468.19 75.35 C-461.25 66.05 -451.38 58.87 -440 56 C-435.98 55.57 -431.98 55.49 -427.94 55.44 C-419.54 55.23 -411.47 54.76 -403.18 53.3 C-388.77 51.93 -371.38 58.03 -358.12 63.25 C-337.44 71.37 -315.3 76.89 -293.58 81.45 C-290.84 82.03 -288.1 82.65 -285.36 83.27 C-271.97 86.27 -258.55 88.82 -245 91 C-243.95 91.17 -242.9 91.35 -241.81 91.53 C-227.7 93.84 -213.64 95.42 -199.38 96.25 C-198.34 96.31 -198.34 96.31 -197.29 96.37 C-180.25 97.36 -163.59 97.21 -146.62 95.25 C-145.82 95.16 -145.01 95.07 -144.18 94.97 C-95.43 89.45 -50.52 70.92 -18 33 C-17.52 32.45 -17.05 31.89 -16.56 31.32 C-10.32 24.01 -5.48 17.46 -3 8 C-2.6 6.62 -2.21 5.25 -1.81 3.88 C-1.54 2.93 -1.28 1.98 -1 1 C-0.67 0.67 -0.34 0.34 0 0 Z " fill="#3086CD" transform="translate(781,789)"/>
<path d="M0 0 C7.62 6.44 15.25 15.37 16.71 25.6 C17.35 55.01 6.3 83.93 -5.16 110.5 C-6.18 112.88 -7.19 115.26 -8.18 117.66 C-11.08 124.64 -14.2 131.11 -18.35 137.43 C-18.86 138.23 -19.38 139.02 -19.9 139.84 C-24.47 146.87 -29.32 153.69 -34.44 160.32 C-35.71 162.01 -35.71 162.01 -36.83 163.95 C-38 165.85 -39.07 167.44 -40.66 169 C-44.12 169.71 -44.12 169.71 -48.04 169.5 C-48.73 169.47 -49.42 169.44 -50.14 169.4 C-51.58 169.33 -53.03 169.25 -54.48 169.15 C-56.63 169 -58.78 168.9 -60.94 168.82 C-71.15 168.34 -71.15 168.34 -74.66 166 C-68.68 164.27 -62.67 162.63 -56.66 161 C-56.58 157.95 -56.69 155.92 -57.66 153 C-63.57 154.15 -63.57 154.15 -69.23 156.12 C-75.82 158.49 -82.51 156.88 -88.66 154 C-91.55 152.08 -94.08 150.15 -95.66 147 C-96.98 147 -98.3 147 -99.66 147 C-99.78 150.16 -99.62 152.96 -98.66 156 C-96.71 157.97 -94.74 159.35 -92.38 160.8 C-91.81 161.2 -91.25 161.59 -90.66 162 C-90.66 162.66 -90.66 163.32 -90.66 164 C-91.36 163.85 -92.06 163.71 -92.78 163.56 C-95.79 162.97 -98.82 162.44 -101.85 161.91 C-103.61 161.6 -103.61 161.6 -105.41 161.28 C-107.87 160.84 -110.32 160.41 -112.78 159.99 C-113.96 159.78 -115.14 159.57 -116.35 159.35 C-117.42 159.16 -118.48 158.97 -119.58 158.78 C-122.97 157.92 -125.68 156.8 -128.66 155 C-129.15 153.85 -129.64 152.71 -130.14 151.54 C-132.05 147.1 -133.65 146.36 -137.98 144.37 C-138.59 144.09 -139.19 143.8 -139.82 143.51 C-145.4 140.95 -151.16 138.94 -157 137.04 C-159.66 136 -159.66 136 -160.66 134 C-160.17 133.09 -159.67 132.18 -159.16 131.25 C-157.45 127.54 -157.65 125.87 -158.66 122 C-161.33 123.01 -162.47 123.66 -163.93 126.16 C-164.25 126.97 -164.58 127.78 -164.91 128.62 C-165.25 129.44 -165.58 130.26 -165.93 131.1 C-166.17 131.72 -166.41 132.35 -166.66 133 C-167.71 132.63 -167.71 132.63 -168.77 132.27 C-183.89 127.08 -198.72 122.81 -214.42 119.85 C-215.57 119.63 -216.73 119.41 -217.91 119.19 C-218.93 119 -219.95 118.82 -220.99 118.63 C-225.63 117.53 -225.63 117.53 -227.66 116 C-228.27 113.57 -228.27 113.57 -228.4 110.46 C-228.46 109.28 -228.51 108.11 -228.57 106.91 C-228.6 105.62 -228.63 104.33 -228.66 103 C-228.68 102.33 -228.7 101.66 -228.72 100.97 C-228.82 96.61 -228.85 92.25 -228.85 87.89 C-228.85 85.63 -228.87 83.38 -228.89 81.12 C-228.94 67.02 -228.16 53.81 -221.66 41 C-221.15 39.98 -220.63 38.95 -220.1 37.9 C-214.7 27.99 -207.48 19.14 -196.66 15 C-191.93 13.9 -187.34 13.44 -182.66 15 C-177.06 21.99 -175.16 31.8 -172.84 40.27 C-170.11 50.22 -166.52 59.09 -161 67.84 C-159.66 70 -159.66 70 -158.8 72.18 C-157.19 74.76 -155.63 74.91 -152.73 75.62 C-149.42 76.45 -147.56 77.07 -144.66 79 C-144.66 79.66 -144.66 80.32 -144.66 81 C-143.67 81 -142.68 81 -141.66 81 C-141.63 80.23 -141.6 79.46 -141.57 78.68 C-140.66 76 -140.66 76 -137.82 74.44 C-136.01 73.79 -136.01 73.79 -134.16 73.12 C-127.75 70.63 -122.77 67.61 -117.66 63 C-117.1 62.52 -116.53 62.05 -115.95 61.56 C-108.35 54.69 -103.06 45.19 -97.5 36.68 C-86.12 19.28 -69.22 -4.26 -48.66 -11 C-31.77 -14.25 -13.7 -10.31 0 0 Z " fill="#F3F7F8" transform="translate(750.6640625,453.00390625)"/>
<path d="M0 0 C3.24 2.76 6.18 5.77 9.1 8.86 C9.59 9.37 10.08 9.87 10.58 10.39 C18.95 19.19 27.35 30.54 29.1 42.86 C28.11 43.64 28.11 43.64 27.09 44.44 C22.5 48.06 18.17 51.67 14.1 55.86 C13.11 56.52 12.12 57.18 11.1 57.86 C11.1 57.2 11.1 56.54 11.1 55.86 C9.62 55.37 9.62 55.37 8.1 54.86 C6.74 53.25 6.74 53.25 5.36 51.19 C4.85 50.44 4.34 49.7 3.82 48.93 C3.29 48.14 2.77 47.36 2.23 46.55 C-2.99 38.75 -7.56 33.34 -16.9 30.86 C-23.8 29.73 -27.72 31.88 -33.41 35.82 C-40.25 41.43 -42.85 49.23 -43.9 57.86 C-43.74 66.85 -40.36 74.21 -35.9 81.86 C-35.32 82.96 -35.32 82.96 -34.73 84.08 C-28.98 93.44 -16.25 98.67 -6.02 101.43 C3.56 103.58 10.15 103.29 19.41 100.36 C28.3 97.56 36.93 95.91 45.91 99.43 C50.62 101.88 54.35 105.14 58.1 108.86 C58.86 109.57 59.61 110.28 60.39 111.01 C72.89 123.59 75.63 140.78 75.67 157.88 C75.36 171.49 70.53 183.61 61.46 193.78 C58.03 196.81 54.47 198.57 50.1 199.86 C50.52 204.79 52.65 206.84 56.16 210.18 C57.08 211.06 58 211.94 58.95 212.85 C59.66 213.52 60.37 214.18 61.1 214.86 C59.84 218.22 58.84 220.5 56.1 222.86 C52.24 220.05 49.8 217.29 47.29 213.24 C46.68 212.28 46.08 211.32 45.46 210.32 C44.1 207.86 44.1 207.86 44.1 205.86 C39.08 208.16 36.25 211.87 34.1 216.86 C33.61 219.39 33.61 219.39 34.1 221.86 C35.65 223.8 35.65 223.8 37.79 225.36 C38.51 225.96 39.24 226.55 39.99 227.16 C40.69 227.72 41.38 228.28 42.1 228.86 C43.92 230.47 45.49 232.05 47.1 233.86 C47.1 234.85 47.1 235.84 47.1 236.86 C44.26 238.84 41.22 240.36 38.1 241.86 C35.22 239.06 32.6 236.26 30.1 233.11 C28.32 231.05 27.14 229.88 24.73 228.55 C20.94 229 18.77 231.04 15.87 233.42 C12.89 235.85 10.37 236.39 6.51 236.32 C-3.06 234.49 -10.1 226.07 -15.9 218.86 C-16.31 218.36 -16.73 217.86 -17.16 217.34 C-18.45 215.78 -19.71 214.2 -20.96 212.61 C-21.72 211.66 -22.47 210.71 -23.25 209.72 C-25.22 206.31 -25.64 204.73 -24.9 200.86 C-23.17 198.64 -21.63 196.93 -19.59 195.05 C-19.09 194.56 -18.59 194.07 -18.07 193.57 C-15.71 191.3 -14.04 189.91 -10.9 188.86 C-10.3 189.42 -9.69 189.97 -9.07 190.54 C-8.27 191.27 -7.47 191.99 -6.65 192.74 C-5.47 193.82 -5.47 193.82 -4.26 194.92 C-1.13 197.5 1.18 198.69 5.16 199.43 C11.73 198.49 17.29 194.92 21.78 190.04 C27.33 181.85 30.96 170.71 29.1 160.86 C26.51 154.13 23.12 148.88 17.1 144.86 C9.55 142.35 4.5 144.21 -2.39 147.58 C-3.38 148.08 -4.37 148.59 -5.4 149.11 C-6.39 149.6 -7.39 150.1 -8.41 150.6 C-12.04 152.4 -15.66 154.21 -19.24 156.1 C-25.31 159.25 -29.57 160.01 -36.16 158.26 C-49.7 152.75 -60.49 138.84 -66.13 125.74 C-71.97 111.5 -74.04 97.99 -74.15 82.68 C-74.16 81.68 -74.17 80.68 -74.18 79.65 C-74.15 74.62 -73.79 70.19 -72.56 65.3 C-71.26 58.76 -73.72 54.65 -77.02 49.11 C-77.52 48.22 -78.02 47.33 -78.54 46.41 C-80.36 43.16 -82.25 39.95 -84.16 36.76 C-86.89 32.13 -86.89 32.13 -86.96 29.18 C-85.57 26.15 -83.52 24.86 -80.9 22.86 C-79.56 24.65 -78.23 26.44 -76.9 28.24 C-75.78 29.73 -75.78 29.73 -74.65 31.26 C-72.9 33.86 -72.9 33.86 -72.9 35.86 C-72.34 36.13 -71.78 36.4 -71.21 36.68 C-68.7 37.96 -66.31 39.39 -63.9 40.86 C-63 39.31 -62.13 37.75 -61.27 36.18 C-60.79 35.31 -60.3 34.44 -59.8 33.54 C-58.66 30.94 -58.66 30.94 -59.46 28.51 C-61.36 25.02 -63.37 21.62 -65.46 18.24 C-69.77 11.26 -69.77 11.26 -70.9 7.86 C-68.96 4.68 -68.96 4.68 -66.9 1.86 C-62.21 5.53 -58.68 9.21 -55.45 14.23 C-53.94 16.02 -53.94 16.02 -51.54 16.94 C-48.65 17.15 -48.65 17.15 -46.43 14.55 C-45.55 13.47 -44.69 12.39 -43.84 11.3 C-34.06 -0.17 -13.75 -10.13 0 0 Z " fill="#F9DA0E" transform="translate(759.8984375,1027.13671875)"/>
<path d="M0 0 C0.99 0.5 0.99 0.5 2 1 C2.06 2.56 2.06 2.56 2.11 4.16 C2.79 19.9 5.62 34.2 11 49 C10.16 49.22 9.31 49.44 8.45 49.67 C4.95 50.81 2.07 51.96 -1 54 C-2.18 56.89 -2.31 59.35 -2.52 62.46 C-3.22 67.59 -5.33 71.83 -7.53 76.48 C-9.16 79.98 -10.46 83.16 -11 87 C-3.42 89.4 4.23 91.34 11.95 93.2 C14.31 93.77 16.65 94.38 19 95 C20.41 95.32 20.41 95.32 21.86 95.65 C25.34 97.84 26.45 101.34 28 105 C28.41 105.94 28.82 106.87 29.25 107.83 C31.11 112.09 32.94 116.35 34.76 120.62 C38.13 128.42 42.11 135.53 46.72 142.65 C47.14 143.43 47.56 144.2 48 145 C47.35 147.08 47.35 147.08 46 149 C45.41 149.92 45.41 149.92 44.81 150.86 C37.2 161.35 26.86 168.24 16 175 C14.82 175.74 14.82 175.74 13.62 176.49 C-2.21 186.27 -18.54 193.04 -36.56 197.69 C-37.25 197.87 -37.93 198.06 -38.64 198.25 C-41.72 198.97 -43.69 199.11 -46.68 198.02 C-49.69 195.4 -51.56 192.43 -53.5 189 C-53.92 188.27 -54.34 187.53 -54.77 186.77 C-70.59 158.55 -81.22 130.04 -86 98 C-86.11 97.27 -86.22 96.53 -86.34 95.78 C-87.04 90.8 -87.15 85.9 -87.12 80.88 C-87.12 80.05 -87.12 79.23 -87.11 78.38 C-86.94 57.8 -86.94 57.8 -84 53 C-82.25 51.68 -82.25 51.68 -80.14 50.52 C-79.36 50.08 -78.58 49.65 -77.78 49.2 C-76.95 48.74 -76.11 48.28 -75.25 47.81 C-73.51 46.83 -71.77 45.85 -70.03 44.86 C-69.17 44.38 -68.31 43.89 -67.43 43.39 C-59.19 38.67 -51.41 33.37 -43.81 27.69 C-35.2 21.26 -26.16 15.6 -17 10 C-15.78 9.25 -15.78 9.25 -14.53 8.48 C-12.17 7.04 -9.81 5.61 -7.44 4.19 C-6.72 3.75 -6 3.31 -5.25 2.86 C-3.54 1.84 -1.77 0.91 0 0 Z " fill="#F3F7F8" transform="translate(705,677)"/>
<path d="M0 0 C0.99 0.5 0.99 0.5 2 1 C1.93 2.1 1.86 3.2 1.78 4.33 C-1.31 52.72 12.45 95.61 35.75 137.52 C37 140 37 140 37 142 C37.66 142.33 38.32 142.66 39 143 C6.61 149.66 -24.17 150.84 -56.94 146.41 C-59.85 146.02 -62.76 145.69 -65.68 145.38 C-80.47 143.65 -80.47 143.65 -85.51 138.05 C-86.25 137.04 -86.25 137.04 -87 136 C-87.8 134.95 -87.8 134.95 -88.62 133.88 C-93.52 126.64 -95.82 118.36 -98 110 C-98.32 108.79 -98.64 107.58 -98.98 106.33 C-100.9 97.8 -101.27 89.49 -101.31 80.75 C-101.32 79.13 -101.32 79.13 -101.33 77.49 C-101.3 74.32 -101.15 71.17 -101 68 C-101.04 66.43 -101.04 66.43 -101.08 64.83 C-100.95 61.34 -100.6 59.12 -99 56 C-94.85 52.79 -90.44 50.71 -85.63 48.63 C-81.69 46.92 -77.82 45.07 -73.94 43.24 C-72.78 42.7 -72.78 42.7 -71.59 42.15 C-65.05 39.1 -58.87 35.6 -52.75 31.75 C-51.85 31.18 -50.94 30.62 -50.01 30.03 C-48.23 28.91 -46.45 27.79 -44.67 26.67 C-40.08 23.8 -35.41 21.06 -30.75 18.31 C-29.85 17.78 -28.96 17.25 -28.03 16.71 C-20.95 12.54 -13.85 8.42 -6.72 4.34 C-5.98 3.91 -5.24 3.49 -4.48 3.05 C-3.83 2.67 -3.18 2.3 -2.51 1.92 C-1.01 1.09 -1.01 1.09 0 0 Z " fill="#F3F7F8" transform="translate(614,734)"/>
<path d="M0 0 C5 1.36 10.02 2.35 15.12 3.27 C25.66 5.21 35.78 7.78 45.96 11.16 C47.07 11.53 48.19 11.9 49.34 12.28 C55.05 14.24 60.19 16.49 65.39 19.54 C69.18 21.6 73.27 22.67 77.39 23.87 C82.26 25.36 82.26 25.36 84.46 28.66 C84.08 30.85 84.08 30.85 83.46 32.66 C82.88 32.65 82.29 32.64 81.69 32.63 C67.61 32.47 57.35 34.02 45.46 41.66 C43.92 42.58 43.92 42.58 42.35 43.52 C26.18 54.01 15.79 78.57 10.46 96.66 C9.62 103.1 11.02 108.69 13.15 114.73 C13.39 115.48 13.63 116.23 13.89 117 C16.62 125.02 21 131.27 26.46 137.66 C26.46 137.99 26.46 138.32 26.46 138.66 C18.94 138.89 11.82 138.05 4.4 136.91 C3.2 136.73 2 136.55 0.77 136.36 C-8.19 134.96 -16.83 133.18 -25.54 130.66 C-26.79 130.34 -28.04 130.02 -29.32 129.69 C-45.61 125.29 -60.41 116.86 -73.68 106.57 C-76.59 104.33 -79.58 102.27 -82.65 100.26 C-83.52 99.68 -84.4 99.1 -85.3 98.51 C-87.01 97.38 -88.73 96.27 -90.46 95.17 C-91.24 94.65 -92.02 94.14 -92.82 93.61 C-93.51 93.16 -94.21 92.71 -94.92 92.25 C-97.06 90.16 -97.3 88.61 -97.54 85.66 C-94.43 78.18 -88.51 72.29 -82.97 66.53 C-78.94 62.27 -75.8 57.79 -72.85 52.71 C-71.54 50.66 -71.54 50.66 -69.54 49.66 C-67.5 49.53 -65.46 49.43 -63.42 49.35 C-57.58 48.94 -53.38 47.95 -48.54 44.66 C-47.72 44.13 -46.89 43.59 -46.04 43.04 C-43.52 39.04 -43.93 35.25 -44.54 30.66 C-45.68 25.93 -47.09 21.31 -48.54 16.66 C-48.89 15.33 -49.23 14 -49.54 12.66 C-48.7 12.02 -47.85 11.38 -46.98 10.72 C-46.43 10.31 -45.89 9.89 -45.33 9.46 C-44.13 8.55 -42.92 7.64 -41.71 6.74 C-38.34 4.19 -35.65 1.66 -32.92 -1.59 C-25.25 -8.46 -8.83 -2.41 0 0 Z " fill="#DA5419" transform="translate(934.541748046875,718.33642578125)"/>
<path d="M0 0 C4.9 0.11 7.44 1.12 11.31 4.12 C20.78 11.18 32.89 14.36 44 18 C45.47 23.34 44.25 26.44 41.75 31.12 C29.09 56.4 30.67 89.81 39.02 116.25 C44.12 131.48 50.21 146.44 57 161 C53.37 164.63 42.05 163.24 37.19 163.25 C19.05 163.18 9.44 157.24 -3.44 145 C-23.13 124.32 -24.49 92.49 -24.5 65.41 C-24.29 56.81 -22.38 49.11 -19.62 41.01 C-18.96 38.86 -18.51 36.73 -18.07 34.53 C-17.07 29.85 -15.34 25.78 -13.25 21.5 C-12.9 20.76 -12.54 20.02 -12.18 19.26 C-9.54 13.87 -6.62 8.81 -3 4 C-2.45 3.26 -1.9 2.53 -1.33 1.77 C-0.89 1.19 -0.45 0.6 0 0 Z " fill="#3086CD" transform="translate(314,674)"/>
<path d="M0 0 C0.66 0 1.32 0 2 0 C2.83 7.09 3.21 14.11 3.25 21.25 C3.28 22.65 3.28 22.65 3.31 24.08 C3.38 37.14 -0.39 48.98 -5.02 61.01 C-5.81 63.06 -6.58 65.11 -7.35 67.17 C-10.55 75.62 -14.09 83.84 -18 92 C-18.66 92 -19.32 92 -20 92 C-20.25 92.8 -20.5 93.61 -20.75 94.44 C-22.26 98.74 -24.1 102.85 -26 107 C-26.66 107 -27.32 107 -28 107 C-28.18 107.59 -28.36 108.18 -28.55 108.79 C-31.26 117.3 -31.26 117.3 -34 121 C-34.66 121 -35.32 121 -36 121 C-36.14 121.62 -36.29 122.24 -36.44 122.88 C-37 125 -37 125 -38 127 C-38.66 127 -39.32 127 -40 127 C-40 127.99 -40 128.98 -40 130 C-40.66 130.33 -41.32 130.66 -42 131 C-43.13 133.02 -43.13 133.02 -44 135 C-44.66 135 -45.32 135 -46 135 C-46 135.99 -46 136.98 -46 138 C-46.66 138 -47.32 138 -48 138 C-48 138.99 -48 139.98 -48 141 C-49.62 142.71 -51.29 144.37 -53 146 C-54.65 147.92 -56.27 149.86 -57.88 151.81 C-60.82 155.39 -63.79 158.92 -66.88 162.38 C-69.56 165.41 -71.77 168.61 -74 172 C-76.01 174.27 -77.71 175.83 -80.33 177.35 C-83.13 179.08 -85.35 181 -87.75 183.25 C-89.5 184.84 -91.25 186.42 -93 188 C-93.76 188.68 -94.52 189.37 -95.3 190.07 C-100.01 194.06 -103.63 195.71 -109.72 196.64 C-113.89 197.3 -116.86 198.5 -119.45 201.93 C-119.98 202.68 -120.51 203.43 -121.05 204.21 C-124.99 209.36 -129.45 212.38 -135 215.62 C-135.93 216.18 -136.86 216.74 -137.82 217.32 C-145.33 221.76 -152.98 225.57 -161 229 C-164.11 230.35 -167.21 231.7 -170.31 233.06 C-171.08 233.4 -171.85 233.74 -172.65 234.08 C-177.56 236.27 -182.1 238.75 -186.65 241.63 C-191.19 244.28 -196.12 246.07 -201 248 C-201.76 248.34 -202.53 248.68 -203.32 249.02 C-216.06 254.56 -230.23 257.59 -244 259 C-245.04 259.11 -246.09 259.22 -247.16 259.34 C-284.78 262.66 -322.67 257.8 -359.15 248.71 C-360.9 248.27 -362.66 247.85 -364.42 247.44 C-382.03 243.33 -402.48 234.4 -414.31 220.31 C-427.4 198.96 -425.5 159.34 -420 136 C-419.01 135.01 -419.01 135.01 -418 134 C-412.15 138.88 -412.15 138.88 -411.5 143.75 C-411.73 146.76 -412.34 149.61 -413.02 152.54 C-414.17 158.24 -414.3 163.76 -414.25 169.56 C-414.24 170.61 -414.24 171.66 -414.23 172.74 C-414.04 187.42 -413.65 204.51 -405 217 C-402.57 219.07 -399.81 220.49 -397 222 C-396.29 222.39 -395.57 222.78 -394.84 223.18 C-378.15 231.49 -359.85 234.81 -341.62 237.81 C-340.29 238.03 -340.29 238.03 -338.92 238.26 C-332.96 239.23 -326.98 240.14 -321 241 C-320.26 241.11 -319.51 241.21 -318.74 241.32 C-307.71 242.87 -296.82 243.4 -285.69 243.38 C-284.86 243.38 -284.03 243.38 -283.18 243.38 C-270.55 243.36 -258.1 242.62 -245.56 241.19 C-244.84 241.1 -244.11 241.02 -243.37 240.94 C-210.81 237.13 -181.03 225.48 -152.17 210.15 C-150.52 209.28 -148.88 208.42 -147.23 207.56 C-134.98 201.21 -123.6 194.86 -113 186 C-111.34 184.71 -109.67 183.43 -108 182.16 C-106.34 180.9 -104.7 179.63 -103.06 178.36 C-101.15 176.89 -99.24 175.43 -97.31 173.98 C-90.76 168.96 -85.4 163.22 -80 157 C-79.4 156.32 -78.79 155.64 -78.17 154.94 C-69.03 144.65 -60.37 133.92 -52 123 C-51.1 121.83 -51.1 121.83 -50.17 120.63 C-40.8 107.87 -33.57 93.41 -26.42 79.32 C-25.53 77.55 -24.62 75.79 -23.72 74.03 C-18.8 64.2 -14.98 54.25 -13.94 43.25 C-13.78 41.89 -13.62 40.53 -13.46 39.16 C-13.23 37.08 -13 35 -12.79 32.92 C-11.43 20.2 -6.73 10.8 0 0 Z " fill="#F9DA0E" transform="translate(798,822)"/>
<path d="M0 0 C-0.64 0.5 -1.28 0.99 -1.94 1.5 C-6.01 4.7 -9.94 7.81 -13.44 11.62 C-16.21 14.55 -19.02 16.15 -22.62 17.94 C-28.01 20.7 -30.5 23.55 -33 29 C-33.43 29.85 -33.87 30.69 -34.31 31.56 C-35.27 34.95 -35.43 37.49 -35 41 C-33.54 43.33 -31.94 45.01 -30 47 C-31.58 50.67 -33.88 53.31 -36.5 56.31 C-41.01 61.56 -44.88 67.09 -48.6 72.92 C-53.08 79.9 -53.08 79.9 -56 82 C-60.75 81.92 -64.25 80.03 -68.38 77.81 C-92.12 65.54 -119.06 59.29 -144.87 52.82 C-150.94 51.3 -156.94 49.61 -162.94 47.84 C-165.7 47.08 -168.43 46.51 -171.25 46 C-175 45 -175 45 -176.3 43.23 C-177.64 38.96 -175.45 35 -174 30.94 C-173.71 30.03 -173.41 29.12 -173.11 28.18 C-172.81 27.3 -172.5 26.43 -172.19 25.53 C-171.78 24.33 -171.78 24.33 -171.36 23.11 C-169.12 19.63 -166 18.51 -162.07 17.5 C-159.86 17.06 -157.65 16.7 -155.42 16.37 C-154.59 16.24 -153.76 16.12 -152.91 15.99 C-144.3 14.76 -135.7 14.45 -127.02 14.21 C-108.81 13.67 -91.31 11.81 -73.39 8.58 C-69.24 7.87 -65.07 7.32 -60.89 6.78 C-53.67 5.86 -47.17 4.71 -40.4 1.91 C-30.63 -1.81 -8.89 -5.93 0 0 Z " fill="#DA5419" transform="translate(879,716)"/>
<path d="M0 0 C10.42 6.42 15.17 18.14 18.5 29.44 C22.78 49.02 13.83 68.56 3.52 84.7 C-2.19 92.97 -7.7 97.63 -17.44 100.5 C-20.46 101.02 -23.44 101.23 -26.5 101.38 C-27.26 101.43 -28.03 101.49 -28.81 101.55 C-38.97 102.11 -46.87 96.42 -54.23 89.91 C-58.93 84.96 -61.14 78.82 -63.44 72.5 C-64 71.11 -64 71.11 -64.58 69.69 C-66.56 62.33 -65.55 56.39 -62.44 49.56 C-61.96 48.48 -61.96 48.48 -61.48 47.38 C-60.81 45.86 -60.13 44.34 -59.45 42.82 C-58.45 40.52 -57.52 38.2 -56.61 35.86 C-49.45 17.83 -38.24 7.65 -20.92 -0.71 C-14.54 -2.73 -6.17 -2.73 0 0 Z " fill="#F4F8F9" transform="translate(1017.4375,757.5)"/>
<path d="M0 0 C7.65 3.43 11.09 11.42 14.19 18.81 C17.13 27.58 18 36.85 19 46 C19.16 47.42 19.16 47.42 19.32 48.87 C21.75 71.84 21.2 94.94 21 118 C20.45 118.12 19.91 118.25 19.34 118.37 C6.27 121.35 -6.46 124.86 -19.18 129.08 C-21.23 129.76 -23.29 130.42 -25.35 131.09 C-27.13 131.67 -27.13 131.67 -28.94 132.27 C-31.88 132.97 -33.25 133.14 -36 132 C-40.49 127.51 -37.98 110.48 -38.01 103.9 C-37.98 94.43 -37.72 84.97 -37.43 75.5 C-37.35 72.98 -37.28 70.46 -37.21 67.94 C-36.83 53.83 -36.11 40.57 -32 27 C-31.7 26 -31.4 25.01 -31.09 23.98 C-27.91 14.12 -20.06 6.66 -11 2 C-10.33 1.64 -9.67 1.27 -8.98 0.9 C-5.85 -0.52 -3.39 -0.35 0 0 Z " fill="#3086CD" transform="translate(636,168)"/>
<path d="M0 0 C7.88 9.69 7.66 21.67 7.5 33.5 C7.49 34.69 7.49 34.69 7.49 35.9 C7.39 50.93 5.64 64.71 0.65 78.93 C-0.29 81.94 -0.67 84.87 -1 88 C-5.95 89.58 -10.37 90.33 -15.6 90.59 C-16.32 90.62 -17.05 90.66 -17.8 90.7 C-26.42 91.11 -35.06 91.35 -43.69 91.56 C-46.49 91.63 -49.28 91.7 -52.08 91.78 C-53.86 91.83 -55.65 91.87 -57.43 91.91 C-58.27 91.94 -59.1 91.96 -59.96 91.99 C-65.77 92.11 -65.77 92.11 -68 91 C-68.82 89.18 -68.82 89.18 -69.62 86.8 C-69.92 85.93 -70.21 85.06 -70.51 84.16 C-70.82 83.22 -71.12 82.28 -71.44 81.31 C-71.75 80.36 -72.06 79.4 -72.39 78.42 C-76.15 66.69 -78.41 55.35 -79 43 C-73.23 39.26 -67.3 35.97 -61.19 32.81 C-59.31 31.84 -57.43 30.86 -55.55 29.88 C-54.62 29.4 -53.68 28.91 -52.72 28.41 C-40.8 22.22 -28.95 15.92 -17.12 9.56 C-16 8.96 -14.88 8.36 -13.72 7.73 C-12.66 7.16 -11.6 6.59 -10.51 6 C-9.57 5.5 -8.62 4.99 -7.65 4.47 C-5.06 3.04 -2.53 1.54 0 0 Z " fill="#F3F7F8" transform="translate(788,633)"/>
<path d="M0 0 C0.49 0.5 0.49 0.5 1 1 C3.08 1.39 5.16 1.76 7.25 2.12 C17.28 4.22 28.33 8.88 35 17 C39.52 24.54 41.91 31.17 41 40 C38.3 46.56 32.09 49.88 26 53 C2.21 62.21 -20.32 60.49 -43.56 51.06 C-51.6 47.42 -60.52 43.02 -65 35 C-66.09 30.72 -65.27 27.66 -63.62 23.62 C-54.07 8.92 -39.2 2 -22.69 -1.75 C-6.11 -4.78 -6.11 -4.78 0 0 Z " fill="#F4F8F9" transform="translate(1139,481)"/>
<path d="M0 0 C-0.02 0.87 -0.03 1.74 -0.05 2.64 C-0.48 30.09 0.36 55.82 15 80 C5.27 78.77 -4.15 76.98 -13.69 74.69 C-15.02 74.37 -16.36 74.05 -17.69 73.73 C-20.3 73.11 -22.92 72.48 -25.53 71.84 C-27.58 71.34 -29.64 70.85 -31.69 70.36 C-42.95 67.7 -53.9 64.15 -64.88 60.5 C-65.58 60.27 -66.28 60.03 -67 59.79 C-75.12 57.09 -83.15 54.25 -91.1 51.07 C-98.16 48.46 -105.53 46.85 -113 46 C-111.6 43.21 -110.1 43.09 -107.2 42 C-106.17 41.62 -105.15 41.23 -104.09 40.83 C-102.41 40.2 -102.41 40.2 -100.69 39.56 C-98.28 38.65 -95.87 37.73 -93.46 36.82 C-92.21 36.35 -90.95 35.87 -89.69 35.4 C-70.69 28.22 -52.07 20.51 -33.58 12.1 C-25.94 8.63 -18.28 5.2 -10.54 1.92 C-9.47 1.46 -9.47 1.46 -8.38 0.98 C-3.35 -1.12 -3.35 -1.12 0 0 Z " fill="#F3F7F8" transform="translate(509,795)"/>
<path d="M0 0 C1.08 0.01 1.08 0.01 2.18 0.02 C20.16 0.27 39.87 3.65 53.37 16.31 C56.54 19.6 57.85 21.82 58.44 26.38 C57.82 31.47 56.21 34.99 52.45 38.41 C39.13 47.75 18.72 48.74 3 48 C2.28 47.97 1.56 47.95 0.81 47.92 C-11.75 47.42 -23.7 45.18 -35.88 42.19 C-36.57 42.02 -37.26 41.85 -37.98 41.68 C-55.72 37.38 -55.72 37.38 -61.06 30.25 C-62.76 24.35 -61.96 19.21 -59.06 13.81 C-53.7 6.14 -45.25 3.28 -36.4 1.52 C-24.34 -0.33 -12.17 -0.21 0 0 Z " fill="#F4F8F9" transform="translate(1100,575)"/>
<path d="M0 0 C1.85 1.74 2.73 3.16 3.63 5.53 C3.54 10.31 2.62 13.45 -0.68 17 C-11.16 26.47 -23.55 32.15 -37.37 34.53 C-38.8 34.78 -38.8 34.78 -40.26 35.04 C-70.73 40.31 -70.73 40.31 -85.93 36.84 C-86.6 36.69 -87.27 36.54 -87.96 36.39 C-93.4 34.97 -96.66 32.37 -99.55 27.57 C-101.34 22.81 -102.38 18.39 -100.37 13.53 C-89.28 -2.7 -71.49 -7.65 -53.25 -11.29 C-51.62 -11.61 -51.62 -11.61 -49.96 -11.95 C-30.56 -15.59 -15.8 -11.52 0 0 Z " fill="#F3F7F8" transform="translate(1122.37109375,655.47265625)"/>
<path d="M0 0 C6.21 5.76 7.19 11.34 7.9 19.66 C8.48 39.19 1.36 56.9 -6.17 74.6 C-7.26 77.15 -8.3 79.72 -9.33 82.3 C-12.88 91.02 -16.38 98.48 -24.75 103.44 C-30.05 104.9 -34.52 105.77 -39.66 103.37 C-43.23 100.99 -45.67 98.82 -46.88 94.62 C-47.09 93.24 -47.26 91.84 -47.38 90.44 C-47.45 89.75 -47.53 89.06 -47.62 88.35 C-48.03 81.55 -45.89 75.67 -43.38 69.44 C-43.02 68.51 -42.67 67.57 -42.3 66.61 C-38.16 57.46 -30.51 52.79 -22.38 47.44 C-23.29 47.53 -24.21 47.63 -25.15 47.73 C-26.34 47.84 -27.53 47.95 -28.75 48.06 C-29.93 48.18 -31.12 48.29 -32.34 48.41 C-33.34 48.42 -34.34 48.43 -35.38 48.44 C-36.03 47.78 -36.7 47.12 -37.38 46.44 C-36.45 40.63 -34.73 35.3 -32.64 29.81 C-31.63 27.11 -30.65 24.41 -29.7 21.69 C-29.09 19.98 -28.48 18.27 -27.88 16.56 C-27.59 15.74 -27.31 14.92 -27.01 14.07 C-24.64 7.49 -21.88 2.56 -15.43 -0.83 C-10.09 -2.73 -5.08 -2.35 0 0 Z " fill="#000002" transform="translate(702.375,489.5625)"/>
<path d="M0 0 C1.08 0.01 1.08 0.01 2.18 0.02 C20.16 0.27 39.87 3.65 53.37 16.31 C56.54 19.6 57.85 21.82 58.44 26.38 C57.82 31.47 56.21 34.99 52.45 38.41 C39.13 47.75 18.72 48.74 3 48 C2.28 47.97 1.56 47.95 0.81 47.92 C-11.75 47.42 -23.7 45.18 -35.88 42.19 C-36.57 42.02 -37.26 41.85 -37.98 41.68 C-55.72 37.38 -55.72 37.38 -61.06 30.25 C-62.76 24.35 -61.96 19.21 -59.06 13.81 C-53.7 6.14 -45.25 3.28 -36.4 1.52 C-24.34 -0.33 -12.17 -0.21 0 0 Z M-32.25 7.25 C-32.99 7.36 -33.74 7.47 -34.5 7.58 C-41.08 8.69 -47.32 10.87 -52 15.81 C-54.41 19.66 -54.91 21.55 -54 26 C-49.96 29.23 -46.31 30.72 -41.3 31.85 C-40.02 32.14 -38.74 32.44 -37.41 32.74 C-36.05 33.04 -34.68 33.33 -33.31 33.62 C-32.27 33.85 -32.27 33.85 -31.21 34.09 C-20.21 36.5 -9.27 38.47 2 39 C3.21 39.06 4.42 39.12 5.66 39.18 C18.95 39.46 36.95 39.3 47.84 30.51 C49.26 28.95 49.26 28.95 49.12 26.25 C47.49 21.52 45.07 18.89 41 16 C26.8 9.14 12.6 7.96 -2.89 7.39 C-3.79 7.36 -4.69 7.32 -5.62 7.28 C-6.44 7.25 -7.26 7.22 -8.1 7.19 C-10 7 -10 7 -11 6 C-18.14 5.31 -25.2 6.15 -32.25 7.25 Z " fill="#000002" transform="translate(1100,575)"/>
<path d="M0 0 C0.49 0.5 0.49 0.5 1 1 C3.08 1.39 5.16 1.76 7.25 2.12 C17.28 4.22 28.33 8.88 35 17 C39.52 24.54 41.91 31.17 41 40 C38.3 46.56 32.09 49.88 26 53 C2.21 62.21 -20.32 60.49 -43.56 51.06 C-51.6 47.42 -60.52 43.02 -65 35 C-66.09 30.72 -65.27 27.66 -63.62 23.62 C-54.07 8.92 -39.2 2 -22.69 -1.75 C-6.11 -4.78 -6.11 -4.78 0 0 Z M-51 20 C-51.73 20.72 -52.46 21.44 -53.21 22.18 C-55.87 24.89 -55.87 24.89 -58 28 C-57.87 30.82 -57.65 32.36 -55.61 34.37 C-53.42 35.62 -51.24 36.84 -49 38 C-48.1 38.47 -47.21 38.95 -46.28 39.44 C-24.93 50.01 -3.92 53.6 19 46 C26.84 42.67 26.84 42.67 33 37 C32.99 30.12 30.25 24.37 25.54 19.48 C15.34 10 2.91 7.66 -10.54 6.72 C-11.96 6.62 -13.39 6.5 -14.81 6.37 C-30.18 4.95 -40.18 8.86 -51 20 Z " fill="#000002" transform="translate(1139,481)"/>
<path d="M0 0 C1.85 1.74 2.73 3.16 3.63 5.53 C3.54 10.31 2.62 13.45 -0.68 17 C-11.16 26.47 -23.55 32.15 -37.37 34.53 C-38.8 34.78 -38.8 34.78 -40.26 35.04 C-70.73 40.31 -70.73 40.31 -85.93 36.84 C-86.6 36.69 -87.27 36.54 -87.96 36.39 C-93.4 34.97 -96.66 32.37 -99.55 27.57 C-101.34 22.81 -102.38 18.39 -100.37 13.53 C-89.28 -2.7 -71.49 -7.65 -53.25 -11.29 C-51.62 -11.61 -51.62 -11.61 -49.96 -11.95 C-30.56 -15.59 -15.8 -11.52 0 0 Z M-55.37 -1.47 C-57.28 -1.13 -57.28 -1.13 -59.43 -0.97 C-61.38 -0.73 -61.38 -0.73 -63.37 -0.47 C-63.7 0.19 -64.03 0.85 -64.37 1.53 C-65.43 1.22 -65.43 1.22 -66.52 0.91 C-71.98 0.18 -76.67 2.94 -81.37 5.53 C-87.73 10.26 -87.73 10.26 -92.37 16.53 C-92.83 20.55 -92.83 20.55 -91.21 24.08 C-82.21 31.14 -68.97 30.37 -58.26 29.18 C-54.73 28.75 -51.21 28.27 -47.68 27.78 C-46.56 27.62 -45.43 27.46 -44.27 27.3 C-28.89 24.96 -15.03 20.31 -5.37 7.53 C-11.02 0.67 -19.95 -3.12 -28.37 -5.47 C-35.96 -6.14 -49.64 -7.2 -55.37 -1.47 Z " fill="#000002" transform="translate(1122.37109375,655.47265625)"/>
<path d="M0 0 C3.35 1.63 4.52 3.93 6.31 7.12 C12.35 25.25 2.89 50.54 -4.69 67.12 C-6.54 70.64 -8.09 73.53 -11.98 74.98 C-15.66 75.18 -17.33 73.95 -20.38 71.94 C-21.33 71.33 -22.28 70.71 -23.26 70.08 C-25.72 68.1 -26.73 67.09 -27.69 64.12 C-28.34 57.45 -28.51 49.36 -25.69 43.12 C-23.06 41.56 -23.06 41.56 -20.69 41.12 C-21.18 40.63 -21.68 40.13 -22.19 39.62 C-25.04 34.88 -24.07 30.77 -22.88 25.62 C-20.03 15.32 -15.14 7.38 -5.94 1.44 C-2.69 0.12 -2.69 0.12 0 0 Z " fill="#000002" transform="translate(562.6875,496.875)"/>
<path d="M0 0 C3.04 2.88 4.27 4.93 4.5 9.06 C4 13 4 13 2.62 15.31 C-4.26 19.74 -12.43 20.54 -20.44 20.81 C-21.81 20.87 -21.81 20.87 -23.22 20.92 C-32.31 21.18 -40.75 21.16 -48 15 C-50.51 12.57 -50.96 11.22 -51.62 7.75 C-50.73 2.36 -48.06 -0.47 -44 -4 C-31.4 -12.42 -11.39 -9.63 0 0 Z " fill="#000002" transform="translate(1062,717)"/>
<path d="M0 0 C8.7 1.28 17.13 3.16 25.62 5.44 C26.79 5.74 27.96 6.04 29.17 6.35 C30.28 6.64 31.39 6.94 32.54 7.25 C33.54 7.51 34.54 7.78 35.58 8.05 C38 9 38 9 40 12 C39.41 16.2 37.25 19.93 35.38 23.69 C34.85 24.75 34.85 24.75 34.3 25.84 C31.46 31.41 28.16 36.32 24 41 C13.33 34.9 9.06 23.65 4 13 C3.31 11.57 3.31 11.57 2.6 10.11 C0.82 6.29 0 4.34 0 0 Z " fill="#F2F6F8" transform="translate(735,776)"/>
<path d="M0 0 C5.34 3.39 7.35 9.66 9.43 15.35 C10.09 18.4 10.13 20.09 9 23 C4.65 26.22 -0.84 28.5 -6.31 28.12 C-12.73 26.94 -18.93 24.34 -25 22 C-25.17 15.9 -24.74 11.88 -21 7 C-14.48 1.65 -8.56 -1.54 0 0 Z " fill="#F9DA0F" transform="translate(875,735)"/>
<path d="M0 0 C2.31 0.12 2.31 0.12 5 1 C6.35 2.65 7.68 4.32 9 6 C15.02 9.58 21.02 10.77 28 10 C30.09 9.33 32.08 8.52 34.11 7.68 C36.86 6.69 39.13 6.59 42 7 C44 10 44 10 43.91 12.54 C43 15 43 15 41.02 16.36 C30.79 20.03 19.52 20.77 9.16 17.03 C5.45 15.26 2.39 13.41 0 10 C-0.88 6.98 -1.21 4.14 -1 1 C-0.67 0.67 -0.34 0.34 0 0 Z " fill="#000002" transform="translate(651,599)"/>
<path d="M0 0 C1.99 1.94 2.81 3.44 4 6 C-2.43 7.9 -8.31 8.34 -15 8.31 C-15.95 8.33 -16.89 8.34 -17.87 8.36 C-23.95 8.37 -28.44 7.48 -34 5 C-32.2 1.18 -30.07 -1.36 -26.27 -3.34 C-18.47 -5.6 -7.29 -3.33 0 0 Z " fill="#F3F7F8" transform="translate(1052,720)"/>
<path d="M0 0 C0.7 0.14 1.4 0.29 2.12 0.44 C1.59 4.55 0.42 6.73 -2.25 9.88 C-2.97 10.74 -3.68 11.6 -4.42 12.49 C-5.23 13.46 -6.04 14.44 -6.88 15.44 C-8.77 17.78 -10.64 20.14 -12.5 22.5 C-13.2 23.39 -13.2 23.39 -13.92 24.3 C-17.49 28.86 -20.8 33.53 -23.88 38.44 C-25.86 37.78 -27.84 37.12 -29.88 36.44 C-25.23 26.41 -16.97 17.56 -10.09 8.97 C-9.05 7.65 -8.03 6.32 -7.02 4.99 C-3.51 0.53 -3.51 0.53 0 0 Z " fill="#F9DA0F" transform="translate(855.875,765.5625)"/>
<path d="M0 0 C3 3.42 3.54 6.65 3.34 11.06 C2.76 14.36 1.56 15.9 -1 18 C-4.44 18.62 -4.44 18.62 -8 18 C-11.35 15.57 -12.78 14.15 -13.56 10.06 C-12.73 5.52 -10.79 2.33 -7.06 -0.44 C-4.25 -1.2 -2.72 -1.05 0 0 Z " fill="#000002" transform="translate(404,726)"/>
<path d="M0 0 C0.8 0.01 1.6 0.02 2.42 0.03 C3.03 0.04 3.63 0.05 4.25 0.06 C4.58 1.05 4.91 2.04 5.25 3.06 C2.7 5.22 0.13 7.36 -2.44 9.5 C-3.16 10.11 -3.88 10.72 -4.62 11.35 C-5.33 11.94 -6.03 12.52 -6.76 13.12 C-7.73 13.93 -7.73 13.93 -8.71 14.76 C-11.12 16.3 -12.9 16.84 -15.75 17.06 C-16.74 16.4 -17.73 15.74 -18.75 15.06 C-17.32 11.86 -15.55 9.53 -13.19 6.94 C-10.67 4.2 -10.67 4.2 -8.75 1.06 C-5.82 0.03 -3.09 -0.05 0 0 Z " fill="#FADB0F" transform="translate(892.75,712.9375)"/>
<path d="M0 0 C3.41 1.21 5.28 2.83 7 6 C7.31 9.62 7.31 9.62 7 13 C5 15 5 15 1.62 15.38 C-2 15 -2 15 -4.5 13.44 C-6 11 -6 11 -5.94 7.44 C-5.05 4.17 -4.68 2.93 -2 1 C-1.34 0.67 -0.68 0.34 0 0 Z " fill="#000002" transform="translate(390,775)"/>
<path d="M0 0 C2.28 3.42 2.49 5.14 2.38 9.12 C2 11 2 11 -0.12 13.06 C-3.54 14.18 -5.56 13.94 -9 13 C-10 12 -10 12 -10.19 8.19 C-10.15 4.98 -9.93 2.68 -8 0 C-5.07 -1.47 -3.12 -0.78 0 0 Z " fill="#000002" transform="translate(330,806)"/>
<path d="M0 0 C1.52 3.05 1.24 5.64 1 9 C-0.06 10.94 -0.06 10.94 -2 12 C-6.37 12.39 -8.31 12.46 -12 10 C-11.5 5.6 -9.98 3.25 -7 0 C-4.3 -1.35 -2.85 -0.8 0 0 Z " fill="#000002" transform="translate(306,737)"/>
<path d="M0 0 C1.81 1 1.81 1 3.81 4 C4.36 10.11 4.36 10.11 2.62 12.94 C0.14 14.4 -1.34 14.42 -4.19 14 C-6.5 12.5 -6.5 12.5 -8.19 11 C-7.91 7.05 -7.36 5.22 -4.88 2.06 C-2.19 0 -2.19 0 0 0 Z " fill="#000002" transform="translate(409.1875,754)"/>
<path d="M0 0 C3 1 3 1 5 4 C5.45 10.32 5.45 10.32 3 14 C-3.75 13.25 -3.75 13.25 -6 11 C-6.38 8.12 -6.38 8.12 -6 5 C-4.13 2.7 -2.64 1.32 0 0 Z " fill="#000002" transform="translate(324,728)"/>
<path d="M0 0 C2 1.06 2 1.06 4 3 C4.38 6.56 4.38 6.56 4 10 C3.34 10.66 2.68 11.32 2 12 C-1.62 11.62 -1.62 11.62 -5 11 C-5.76 8.28 -6.17 6.54 -5.31 3.81 C-3.77 1.69 -2.41 0.96 0 0 Z " fill="#000002" transform="translate(424,773)"/>
<path d="M0 0 C1.81 0.81 1.81 0.81 2.81 2.81 C3 5.81 3 5.81 2.81 8.81 C0.81 10.81 0.81 10.81 -1.62 11.06 C-4.19 10.81 -4.19 10.81 -7.19 8.81 C-6.7 3.36 -6.7 3.36 -4.38 0.88 C-2.19 -0.19 -2.19 -0.19 0 0 Z " fill="#000002" transform="translate(428.1875,729.1875)"/>
<path d="M0 0 C1.41 2.83 1.32 4.87 1 8 C-0.69 10 -0.69 10 -3 11 C-5.69 10.44 -5.69 10.44 -8 9 C-9.22 6.56 -9.15 5.46 -8.31 2.88 C-5.89 -0.59 -4 -1.33 0 0 Z " fill="#000002" transform="translate(318,768)"/>
<path d="M0 0 C0.99 0.33 1.98 0.66 3 1 C4.25 7.62 4.25 7.62 2 11 C-0.97 10.5 -0.97 10.5 -4 10 C-4.69 8.31 -4.69 8.31 -5 6 C-2.74 1.37 -2.74 1.37 0 0 Z " fill="#000002" transform="translate(329,752)"/>
<path d="M0 0 C4.41 1.31 8 3.02 11.88 5.5 C12.84 6.11 13.81 6.72 14.8 7.34 C15.53 7.89 16.25 8.44 17 9 C17 9.66 17 10.32 17 11 C13 9.51 9.39 7.63 5.69 5.5 C4.62 4.89 3.55 4.28 2.45 3.66 C1.24 2.84 1.24 2.84 0 2 C0 1.34 0 0.68 0 0 Z " fill="#000002" transform="translate(265,781)"/>
<path d="M0 0 C0.99 0.33 1.98 0.66 3 1 C2.67 2.98 2.34 4.96 2 7 C1.01 7.33 0.02 7.66 -1 8 C-1.62 5.69 -1.62 5.69 -2 3 C-1.34 2.01 -0.68 1.02 0 0 Z " fill="#000002" transform="translate(602,540)"/>
</svg>
